<svg width="46" height="46" viewBox="0 0 46 46" fill="none" xmlns="http://www.w3.org/2000/svg">
<g filter="url(#filter0_d_187_182)">
<circle cx="23" cy="19" r="13" fill="white" fill-opacity="0.17"/>
<path d="M25.0377 16.8826C24.5579 17.1938 23.9917 17.3611 23.4106 17.3611C22.6308 17.3611 21.8874 17.0603 21.3426 16.5315C20.7986 16.0035 20.4973 15.2923 20.4973 14.5556C20.4973 14.0057 20.6652 13.4663 20.9825 13.0055C21.2999 12.5443 21.7535 12.1816 22.2885 11.9665C22.8236 11.7514 23.4136 11.6948 23.9831 11.8047C24.5524 11.9146 25.0725 12.1855 25.4785 12.5796C25.8844 12.9735 26.1581 13.4726 26.2687 14.0125L27.0034 13.8619L26.2687 14.0125C26.3793 14.5522 26.3228 15.1119 26.1052 15.6218C25.8875 16.132 25.5172 16.5717 25.0377 16.8826Z" stroke="white" stroke-width="1.5"/>
<path d="M29.0308 26.2015C29.0013 26.2301 28.9567 26.25 28.9056 26.25H17.9158C17.8647 26.25 17.8201 26.2301 17.7906 26.2015C17.7619 26.1736 17.75 26.1406 17.75 26.1111C17.75 24.6672 18.3408 23.2776 19.4 22.2495C20.46 21.2207 21.9023 20.6389 23.4107 20.6389C24.9191 20.6389 26.3614 21.2207 27.4214 22.2495C28.4806 23.2776 29.0714 24.6672 29.0714 26.1111C29.0714 26.1406 29.0595 26.1736 29.0308 26.2015Z" stroke="white" stroke-width="1.5"/>
</g>
<defs>
<filter id="filter0_d_187_182" x="0" y="0" width="46" height="46" filterUnits="userSpaceOnUse" color-interpolation-filters="sRGB">
<feFlood flood-opacity="0" result="BackgroundImageFix"/>
<feColorMatrix in="SourceAlpha" type="matrix" values="0 0 0 0 0 0 0 0 0 0 0 0 0 0 0 0 0 0 127 0" result="hardAlpha"/>
<feOffset dy="4"/>
<feGaussianBlur stdDeviation="5"/>
<feComposite in2="hardAlpha" operator="out"/>
<feColorMatrix type="matrix" values="0 0 0 0 0.592157 0 0 0 0 0.278431 0 0 0 0 1 0 0 0 1 0"/>
<feBlend mode="normal" in2="BackgroundImageFix" result="effect1_dropShadow_187_182"/>
<feBlend mode="normal" in="SourceGraphic" in2="effect1_dropShadow_187_182" result="shape"/>
</filter>
</defs>
</svg>
